<mxfile host="Electron" agent="Mozilla/5.0 (X11; Linux x86_64) AppleWebKit/537.36 (KHTML, like Gecko) draw.io/26.0.16 Chrome/132.0.6834.196 Electron/34.2.0 Safari/537.36" version="26.0.16">
  <diagram name="Page-1" id="YFnAc3EQSX1Z7nC8sGl8">
    <mxGraphModel dx="2074" dy="1197" grid="1" gridSize="10" guides="1" tooltips="1" connect="1" arrows="1" fold="1" page="1" pageScale="1" pageWidth="1169" pageHeight="827" math="0" shadow="0" adaptiveColors="auto">
      <root>
        <mxCell id="0" />
        <mxCell id="1" parent="0" />
        <mxCell id="7Liy8Brz4sBQMxBtP8Mh-33" style="edgeStyle=orthogonalEdgeStyle;rounded=0;orthogonalLoop=1;jettySize=auto;html=1;exitX=0.25;exitY=1;exitDx=0;exitDy=0;entryX=0.25;entryY=0;entryDx=0;entryDy=0;endArrow=none;endFill=0;startArrow=block;startFill=1;" parent="1" source="7Liy8Brz4sBQMxBtP8Mh-8" target="7Liy8Brz4sBQMxBtP8Mh-6" edge="1">
          <mxGeometry relative="1" as="geometry">
            <mxPoint x="940" y="250" as="sourcePoint" />
            <mxPoint x="940" y="380" as="targetPoint" />
          </mxGeometry>
        </mxCell>
        <mxCell id="7Liy8Brz4sBQMxBtP8Mh-10" value="&lt;b&gt;Transport layer&lt;/b&gt;&lt;div&gt;UART, UDP/IP, raw Ethernet or other&lt;/div&gt;" style="rounded=1;whiteSpace=wrap;html=1;fillColor=#dae8fc;strokeColor=#6c8ebf;" parent="1" vertex="1">
          <mxGeometry x="170" y="590" width="820" height="80" as="geometry" />
        </mxCell>
        <mxCell id="7Liy8Brz4sBQMxBtP8Mh-23" style="edgeStyle=orthogonalEdgeStyle;rounded=0;orthogonalLoop=1;jettySize=auto;html=1;exitX=0.75;exitY=1;exitDx=0;exitDy=0;entryX=0.25;entryY=1;entryDx=0;entryDy=0;endArrow=block;endFill=1;" parent="1" source="7Liy8Brz4sBQMxBtP8Mh-27" target="7Liy8Brz4sBQMxBtP8Mh-7" edge="1">
          <mxGeometry relative="1" as="geometry">
            <mxPoint x="550" y="550" as="targetPoint" />
            <Array as="points">
              <mxPoint x="350" y="600" />
              <mxPoint x="810" y="600" />
            </Array>
          </mxGeometry>
        </mxCell>
        <mxCell id="7Liy8Brz4sBQMxBtP8Mh-35" value="Send msg" style="edgeLabel;html=1;align=left;verticalAlign=middle;resizable=0;points=[];" parent="7Liy8Brz4sBQMxBtP8Mh-23" vertex="1" connectable="0">
          <mxGeometry x="-0.9078" y="1" relative="1" as="geometry">
            <mxPoint x="9" y="-116" as="offset" />
          </mxGeometry>
        </mxCell>
        <mxCell id="7Liy8Brz4sBQMxBtP8Mh-31" style="edgeStyle=orthogonalEdgeStyle;rounded=0;orthogonalLoop=1;jettySize=auto;html=1;exitX=0.25;exitY=1;exitDx=0;exitDy=0;entryX=0.75;entryY=1;entryDx=0;entryDy=0;endArrow=none;endFill=0;startArrow=block;startFill=1;" parent="1" source="7Liy8Brz4sBQMxBtP8Mh-27" target="7Liy8Brz4sBQMxBtP8Mh-7" edge="1">
          <mxGeometry relative="1" as="geometry">
            <mxPoint x="670" y="550" as="targetPoint" />
            <Array as="points">
              <mxPoint x="230" y="610" />
              <mxPoint x="930" y="610" />
            </Array>
          </mxGeometry>
        </mxCell>
        <mxCell id="7Liy8Brz4sBQMxBtP8Mh-29" style="edgeStyle=orthogonalEdgeStyle;rounded=0;orthogonalLoop=1;jettySize=auto;html=1;exitX=0.25;exitY=1;exitDx=0;exitDy=0;entryX=0.25;entryY=0;entryDx=0;entryDy=0;endArrow=none;endFill=0;startArrow=block;startFill=1;" parent="1" source="7Liy8Brz4sBQMxBtP8Mh-9" target="7Liy8Brz4sBQMxBtP8Mh-4" edge="1">
          <mxGeometry relative="1" as="geometry" />
        </mxCell>
        <mxCell id="7Liy8Brz4sBQMxBtP8Mh-25" style="edgeStyle=orthogonalEdgeStyle;rounded=0;orthogonalLoop=1;jettySize=auto;html=1;exitX=0.75;exitY=1;exitDx=0;exitDy=0;entryX=0.75;entryY=0;entryDx=0;entryDy=0;endArrow=block;endFill=1;" parent="1" source="7Liy8Brz4sBQMxBtP8Mh-6" target="7Liy8Brz4sBQMxBtP8Mh-7" edge="1">
          <mxGeometry relative="1" as="geometry" />
        </mxCell>
        <mxCell id="7Liy8Brz4sBQMxBtP8Mh-22" style="edgeStyle=orthogonalEdgeStyle;rounded=0;orthogonalLoop=1;jettySize=auto;html=1;exitX=0.75;exitY=1;exitDx=0;exitDy=0;entryX=0.75;entryY=0;entryDx=0;entryDy=0;endArrow=block;endFill=1;" parent="1" source="7Liy8Brz4sBQMxBtP8Mh-9" target="7Liy8Brz4sBQMxBtP8Mh-4" edge="1">
          <mxGeometry relative="1" as="geometry" />
        </mxCell>
        <mxCell id="7Liy8Brz4sBQMxBtP8Mh-34" value="Call" style="edgeLabel;html=1;align=left;verticalAlign=middle;resizable=0;points=[];" parent="7Liy8Brz4sBQMxBtP8Mh-22" vertex="1" connectable="0">
          <mxGeometry x="-0.7732" y="1" relative="1" as="geometry">
            <mxPoint x="9" y="4" as="offset" />
          </mxGeometry>
        </mxCell>
        <mxCell id="7Liy8Brz4sBQMxBtP8Mh-26" style="edgeStyle=orthogonalEdgeStyle;rounded=0;orthogonalLoop=1;jettySize=auto;html=1;exitX=0.75;exitY=1;exitDx=0;exitDy=0;entryX=0.75;entryY=0;entryDx=0;entryDy=0;endArrow=block;endFill=1;" parent="1" source="7Liy8Brz4sBQMxBtP8Mh-8" target="7Liy8Brz4sBQMxBtP8Mh-6" edge="1">
          <mxGeometry relative="1" as="geometry" />
        </mxCell>
        <mxCell id="7Liy8Brz4sBQMxBtP8Mh-45" style="edgeStyle=orthogonalEdgeStyle;rounded=0;orthogonalLoop=1;jettySize=auto;html=1;exitX=0.25;exitY=1;exitDx=0;exitDy=0;entryX=1;entryY=0.5;entryDx=0;entryDy=0;curved=1;fillColor=#d5e8d4;strokeColor=#82b366;" parent="1" source="7Liy8Brz4sBQMxBtP8Mh-1" target="7Liy8Brz4sBQMxBtP8Mh-4" edge="1">
          <mxGeometry relative="1" as="geometry" />
        </mxCell>
        <mxCell id="7Liy8Brz4sBQMxBtP8Mh-46" value="Generates the&lt;div&gt;adc_read() function&lt;/div&gt;" style="edgeLabel;html=1;align=center;verticalAlign=middle;resizable=0;points=[];" parent="7Liy8Brz4sBQMxBtP8Mh-45" vertex="1" connectable="0">
          <mxGeometry x="0.0404" y="-1" relative="1" as="geometry">
            <mxPoint x="7" y="16" as="offset" />
          </mxGeometry>
        </mxCell>
        <mxCell id="7Liy8Brz4sBQMxBtP8Mh-47" style="edgeStyle=orthogonalEdgeStyle;rounded=0;orthogonalLoop=1;jettySize=auto;html=1;exitX=0.75;exitY=1;exitDx=0;exitDy=0;entryX=0;entryY=0.5;entryDx=0;entryDy=0;curved=1;fillColor=#d5e8d4;strokeColor=#82b366;" parent="1" source="7Liy8Brz4sBQMxBtP8Mh-1" target="7Liy8Brz4sBQMxBtP8Mh-6" edge="1">
          <mxGeometry relative="1" as="geometry" />
        </mxCell>
        <mxCell id="7Liy8Brz4sBQMxBtP8Mh-1" value="&lt;b&gt;User application protocol definition&lt;br&gt;&lt;/b&gt;&lt;pre style=&quot;&quot;&gt;&lt;div style=&quot;&quot;&gt;&lt;div style=&quot;color: rgb(59, 59, 59); font-family: &amp;quot;Intel One Mono&amp;quot;, &amp;quot;MesloLGM Nerd Font Mono&amp;quot;, Menlo, Inconsolata, Consolas, &amp;quot;Source Code Pro&amp;quot;, &amp;quot;Droid Sans Mono&amp;quot;, &amp;quot;monospace&amp;quot;, monospace, &amp;quot;Droid Sans Fallback&amp;quot;, &amp;quot;Droid Sans Mono&amp;quot;, &amp;quot;monospace&amp;quot;, monospace; line-height: 19px;&quot;&gt;&lt;div style=&quot;text-align: left;&quot;&gt;&lt;span style=&quot;color: rgb(121, 94, 38);&quot;&gt;@rpc&lt;/span&gt;(&lt;span style=&quot;color: rgb(0, 0, 255);&quot;&gt;0x&lt;/span&gt;&lt;span style=&quot;color: rgb(9, 134, 88);&quot;&gt;023&lt;/span&gt;)&lt;/div&gt;&lt;div style=&quot;text-align: left;&quot;&gt;&lt;span style=&quot;color: #0000ff;&quot;&gt;def&lt;/span&gt; &lt;span style=&quot;color: #795e26;&quot;&gt;adc_read&lt;/span&gt;(&lt;span style=&quot;color: #001080;&quot;&gt;self&lt;/span&gt;, &lt;span style=&quot;color: #001080;&quot;&gt;channel&lt;/span&gt;: &lt;span style=&quot;color: #267f99;&quot;&gt;U8&lt;/span&gt;) -&amp;gt; &lt;span style=&quot;color: #267f99;&quot;&gt;U16&lt;/span&gt;:&lt;/div&gt;&lt;div style=&quot;text-align: left;&quot;&gt;    &lt;span style=&quot;color: rgb(163, 21, 21);&quot;&gt;&quot;&quot;&quot;Reads the specified ADC channel&quot;&quot;&quot;&lt;/span&gt;&lt;/div&gt;&lt;/div&gt;&lt;/div&gt;&lt;/pre&gt;" style="rounded=1;whiteSpace=wrap;html=1;fillColor=#dae8fc;strokeColor=#6c8ebf;verticalAlign=top;opacity=90;" parent="1" vertex="1">
          <mxGeometry x="410" y="260" width="340" height="100" as="geometry" />
        </mxCell>
        <mxCell id="7Liy8Brz4sBQMxBtP8Mh-30" style="edgeStyle=orthogonalEdgeStyle;rounded=0;orthogonalLoop=1;jettySize=auto;html=1;exitX=0.25;exitY=1;exitDx=0;exitDy=0;entryX=0.25;entryY=0;entryDx=0;entryDy=0;endArrow=none;endFill=0;startArrow=block;startFill=1;" parent="1" source="7Liy8Brz4sBQMxBtP8Mh-4" target="7Liy8Brz4sBQMxBtP8Mh-27" edge="1">
          <mxGeometry relative="1" as="geometry" />
        </mxCell>
        <mxCell id="7Liy8Brz4sBQMxBtP8Mh-49" style="edgeStyle=orthogonalEdgeStyle;rounded=0;orthogonalLoop=1;jettySize=auto;html=1;exitX=0.75;exitY=1;exitDx=0;exitDy=0;entryX=0.75;entryY=0;entryDx=0;entryDy=0;endArrow=block;endFill=1;" parent="1" source="7Liy8Brz4sBQMxBtP8Mh-4" target="7Liy8Brz4sBQMxBtP8Mh-27" edge="1">
          <mxGeometry relative="1" as="geometry" />
        </mxCell>
        <mxCell id="7Liy8Brz4sBQMxBtP8Mh-4" value="&lt;b&gt;Compost&amp;nbsp;&lt;/b&gt;&lt;b style=&quot;background-color: initial;&quot;&gt;Python or C# client&lt;/b&gt;" style="rounded=1;whiteSpace=wrap;html=1;fillColor=#d5e8d4;strokeColor=#82b366;" parent="1" vertex="1">
          <mxGeometry x="170" y="370" width="240" height="70" as="geometry" />
        </mxCell>
        <mxCell id="7Liy8Brz4sBQMxBtP8Mh-6" value="&lt;div&gt;&lt;b&gt;Compost provided C code&lt;/b&gt;&lt;/div&gt;&lt;span style=&quot;background-color: initial;&quot;&gt;types, remote function prototypes, serialization and deserialization&lt;/span&gt;" style="rounded=1;whiteSpace=wrap;html=1;fillColor=#d5e8d4;strokeColor=#82b366;" parent="1" vertex="1">
          <mxGeometry x="750" y="370" width="240" height="70" as="geometry" />
        </mxCell>
        <mxCell id="7Liy8Brz4sBQMxBtP8Mh-32" style="edgeStyle=orthogonalEdgeStyle;rounded=0;orthogonalLoop=1;jettySize=auto;html=1;exitX=0.25;exitY=0;exitDx=0;exitDy=0;entryX=0.25;entryY=1;entryDx=0;entryDy=0;endArrow=block;endFill=1;startArrow=none;startFill=0;" parent="1" source="7Liy8Brz4sBQMxBtP8Mh-7" target="7Liy8Brz4sBQMxBtP8Mh-6" edge="1">
          <mxGeometry relative="1" as="geometry" />
        </mxCell>
        <mxCell id="7Liy8Brz4sBQMxBtP8Mh-43" value="Calls compost_msg_process()&lt;div&gt;with received msg&lt;/div&gt;" style="edgeLabel;html=1;align=left;verticalAlign=middle;resizable=0;points=[];" parent="7Liy8Brz4sBQMxBtP8Mh-32" vertex="1" connectable="0">
          <mxGeometry x="-0.0764" relative="1" as="geometry">
            <mxPoint x="-60" y="-1" as="offset" />
          </mxGeometry>
        </mxCell>
        <mxCell id="7Liy8Brz4sBQMxBtP8Mh-7" value="&lt;b&gt;User&amp;nbsp;&lt;/b&gt;&lt;b style=&quot;background-color: initial;&quot;&gt;transport integration code&lt;/b&gt;" style="rounded=1;whiteSpace=wrap;html=1;fillColor=#dae8fc;strokeColor=#6c8ebf;" parent="1" vertex="1">
          <mxGeometry x="750" y="490" width="240" height="70" as="geometry" />
        </mxCell>
        <mxCell id="7Liy8Brz4sBQMxBtP8Mh-8" value="&lt;b&gt;User remote function implementation&lt;/b&gt;&lt;div style=&quot;&quot;&gt;&lt;div style=&quot;font-family: &amp;quot;Intel One Mono&amp;quot;, &amp;quot;MesloLGM Nerd Font Mono&amp;quot;, Menlo, Inconsolata, Consolas, &amp;quot;Source Code Pro&amp;quot;, &amp;quot;Droid Sans Mono&amp;quot;, &amp;quot;monospace&amp;quot;, monospace, &amp;quot;Droid Sans Fallback&amp;quot;, &amp;quot;Droid Sans Mono&amp;quot;, &amp;quot;monospace&amp;quot;, monospace; line-height: 130%; white-space: pre; color: rgb(59, 59, 59);&quot;&gt;&lt;div style=&quot;font-size: 10px; text-align: left; line-height: 130%;&quot;&gt;&lt;span style=&quot;color: rgb(38, 127, 153);&quot;&gt;&lt;br&gt;&lt;/span&gt;&lt;/div&gt;&lt;div style=&quot;text-align: left; line-height: 130%;&quot;&gt;&lt;font style=&quot;font-size: 9px;&quot;&gt;&lt;span style=&quot;color: rgb(38, 127, 153);&quot;&gt;uint16_t&lt;/span&gt; &lt;span style=&quot;color: rgb(121, 94, 38);&quot;&gt;adc_read_handler&lt;/span&gt;(&lt;span style=&quot;color: rgb(38, 127, 153);&quot;&gt;uint8_t&lt;/span&gt; &lt;span style=&quot;color: rgb(0, 16, 128);&quot;&gt;channel&lt;/span&gt;)&lt;/font&gt;&lt;/div&gt;&lt;div style=&quot;text-align: left; line-height: 130%;&quot;&gt;&lt;font style=&quot;font-size: 9px;&quot;&gt;{&lt;/font&gt;&lt;/div&gt;&lt;div style=&quot;text-align: left; line-height: 130%;&quot;&gt;&lt;font style=&quot;font-size: 9px;&quot;&gt;    &lt;span style=&quot;color: rgb(175, 0, 219);&quot;&gt;return&lt;/span&gt; &lt;span style=&quot;color: rgb(9, 134, 88);&quot;&gt;5&lt;/span&gt;;&lt;/font&gt;&lt;/div&gt;&lt;div style=&quot;text-align: left; line-height: 130%;&quot;&gt;&lt;font style=&quot;font-size: 9px;&quot;&gt;}&lt;/font&gt;&lt;/div&gt;&lt;/div&gt;&lt;/div&gt;" style="rounded=1;whiteSpace=wrap;html=1;fillColor=#dae8fc;strokeColor=#6c8ebf;" parent="1" vertex="1">
          <mxGeometry x="750" y="130" width="240" height="100" as="geometry" />
        </mxCell>
        <mxCell id="7Liy8Brz4sBQMxBtP8Mh-9" value="&lt;b&gt;User script/app in Python or C#&lt;/b&gt;&lt;div&gt;&lt;br&gt;&lt;/div&gt;&lt;div&gt;&lt;pre&gt;&lt;div style=&quot;color: rgb(59, 59, 59); font-family: &amp;quot;Intel One Mono&amp;quot;, &amp;quot;MesloLGM Nerd Font Mono&amp;quot;, Menlo, Inconsolata, Consolas, &amp;quot;Source Code Pro&amp;quot;, &amp;quot;Droid Sans Mono&amp;quot;, &amp;quot;monospace&amp;quot;, monospace, &amp;quot;Droid Sans Fallback&amp;quot;, &amp;quot;Droid Sans Mono&amp;quot;, &amp;quot;monospace&amp;quot;, monospace; font-size: 14px; line-height: 19px;&quot;&gt;&lt;span style=&quot;color: rgb(0, 16, 128);&quot;&gt;rpc&lt;/span&gt;.&lt;span style=&quot;color: rgb(121, 94, 38);&quot;&gt;adc_read&lt;/span&gt;(&lt;span style=&quot;color: rgb(9, 134, 88);&quot;&gt;3&lt;/span&gt;)&lt;/div&gt;&lt;/pre&gt;&lt;/div&gt;" style="rounded=1;whiteSpace=wrap;html=1;fillColor=#dae8fc;strokeColor=#6c8ebf;" parent="1" vertex="1">
          <mxGeometry x="170" y="130" width="240" height="100" as="geometry" />
        </mxCell>
        <mxCell id="7Liy8Brz4sBQMxBtP8Mh-27" value="&lt;b&gt;Compost&amp;nbsp;&lt;/b&gt;&lt;b style=&quot;background-color: initial;&quot;&gt;provided&lt;/b&gt;&lt;div&gt;&lt;b&gt;transport or &lt;span style=&quot;background-color: rgb(218, 232, 252);&quot;&gt;custom&lt;/span&gt;&lt;/b&gt;&lt;/div&gt;&lt;pre&gt;&lt;font style=&quot;font-size: 10px;&quot;&gt;UdpTransport(ip_address, target_port)&lt;/font&gt;&lt;/pre&gt;" style="rounded=1;whiteSpace=wrap;html=1;fillColor=#d5e8d4;strokeColor=#82b366;" parent="1" vertex="1">
          <mxGeometry x="170" y="490" width="240" height="70" as="geometry" />
        </mxCell>
        <mxCell id="7Liy8Brz4sBQMxBtP8Mh-38" value="Receive msg" style="edgeLabel;html=1;align=left;verticalAlign=middle;resizable=0;points=[];" parent="1" vertex="1" connectable="0">
          <mxGeometry x="240.00277216085988" y="469.9996218704001" as="geometry" />
        </mxCell>
        <mxCell id="7Liy8Brz4sBQMxBtP8Mh-39" value="Return" style="edgeLabel;html=1;align=left;verticalAlign=middle;resizable=0;points=[];" parent="1" vertex="1" connectable="0">
          <mxGeometry x="240" y="250.0037209302326" as="geometry" />
        </mxCell>
        <mxCell id="7Liy8Brz4sBQMxBtP8Mh-41" value="Calls adc_read_handler(3)" style="edgeLabel;html=1;align=left;verticalAlign=middle;resizable=0;points=[];" parent="1" vertex="1" connectable="0">
          <mxGeometry x="800" y="340.003953488372" as="geometry">
            <mxPoint x="-5" as="offset" />
          </mxGeometry>
        </mxCell>
        <mxCell id="7Liy8Brz4sBQMxBtP8Mh-42" value="Return value" style="edgeLabel;html=1;align=left;verticalAlign=middle;resizable=0;points=[];" parent="1" vertex="1" connectable="0">
          <mxGeometry x="940" y="250.0037209302326" as="geometry" />
        </mxCell>
        <mxCell id="7Liy8Brz4sBQMxBtP8Mh-44" value="Returns msg&lt;div&gt;to send back&lt;/div&gt;" style="edgeLabel;html=1;align=left;verticalAlign=middle;resizable=0;points=[];" parent="1" vertex="1" connectable="0">
          <mxGeometry x="940" y="459.99534883720924" as="geometry">
            <mxPoint x="-1" y="2" as="offset" />
          </mxGeometry>
        </mxCell>
        <mxCell id="7Liy8Brz4sBQMxBtP8Mh-48" value="Generates code that&lt;div&gt;calls the rpc_adc_read()&lt;/div&gt;" style="edgeLabel;html=1;align=center;verticalAlign=middle;resizable=0;points=[];" parent="1" vertex="1" connectable="0">
          <mxGeometry x="679.9966666666664" y="420" as="geometry">
            <mxPoint x="4" y="6" as="offset" />
          </mxGeometry>
        </mxCell>
        <mxCell id="7Liy8Brz4sBQMxBtP8Mh-52" value="" style="rounded=1;whiteSpace=wrap;html=1;fillColor=#dae8fc;strokeColor=#6c8ebf;" parent="1" vertex="1">
          <mxGeometry x="680" y="695" width="30" height="20" as="geometry" />
        </mxCell>
        <mxCell id="7Liy8Brz4sBQMxBtP8Mh-53" value="User provided" style="text;html=1;align=left;verticalAlign=middle;resizable=0;points=[];autosize=1;strokeColor=none;fillColor=none;" parent="1" vertex="1">
          <mxGeometry x="720" y="690" width="100" height="30" as="geometry" />
        </mxCell>
        <mxCell id="7Liy8Brz4sBQMxBtP8Mh-54" value="" style="rounded=1;whiteSpace=wrap;html=1;fillColor=#d5e8d4;strokeColor=#82b366;" parent="1" vertex="1">
          <mxGeometry x="820" y="695" width="30" height="20" as="geometry" />
        </mxCell>
        <mxCell id="7Liy8Brz4sBQMxBtP8Mh-55" value="Compost provided" style="text;html=1;align=left;verticalAlign=middle;resizable=0;points=[];autosize=1;strokeColor=none;fillColor=none;" parent="1" vertex="1">
          <mxGeometry x="860" y="690" width="120" height="30" as="geometry" />
        </mxCell>
      </root>
    </mxGraphModel>
  </diagram>
</mxfile>
